# xmcd
#
# Track frame offsets:
#	150
#	13772
#	27225
#	36548
#	47202
#	58087
#	70525
#	84115
#	97247
#	108663
#	121243
#	134099
#	148767
#	159481
#	171771
#	184786
#	195076
#	204520
#	215679
#	227178
#
# Disc length: 3218 seconds
#
# Revision: 1
# Processed by: cddbd v1.5.2PL0 Copyright (c) Steve Scherf et al.
# Submitted via: audiograbber 1.83.01
#
DISCID=250c9014
DTITLE=T- Bone Walker - Brothers In Blues
DYEAR=2008
DGENRE=Blues
TTITLE0=Call It Stomy Monday
TTITLE1=T-Bone Shuffle
TTITLE2=Teen Age Baby
TTITLE3=Pony Tail
TTITLE4=Welcome Blues (Say Pretty Baby
TTITLE5=Bye Bye Baby
TTITLE6=Here In The Dark
TTITLE7=High Society
TTITLE8=Strugglin' Blues
TTITLE9=Blues Is A Woman
TTITLE10=Blue Mood
TTITLE11=I Got The Blues Again
TTITLE12=I'm About To Lose My Mind
TTITLE13=Glamour Girl
TTITLE14=I miss You Baby
TTITLE15=I walked Away
TTITLE16=I'll Understand
TTITLE17=Every Time
TTITLE18=The Husle Is on
TTITLE19=Cold Cold Feeling
EXTD=
EXTT0=
EXTT1=
EXTT2=
EXTT3=
EXTT4=
EXTT5=
EXTT6=
EXTT7=
EXTT8=
EXTT9=
EXTT10=
EXTT11=
EXTT12=
EXTT13=
EXTT14=
EXTT15=
EXTT16=
EXTT17=
EXTT18=
EXTT19=
PLAYORDER=
